<svg id="Category--Streamline-Carbon.svg" xmlns="http://www.w3.org/2000/svg" viewBox="-0.5 -0.5 16 16" height="16" width="16"><desc>Category Streamline Icon: https://streamlinehq.com</desc><defs></defs><title>category</title><path d="M12.65625 10.378781250000001V8.4375a0.9375 0.9375 0 0 0 -0.9375 -0.9375h-3.75v-1.875h0.9375a0.938578125 0.938578125 0 0 0 0.9375 -0.9375V1.875a0.938578125 0.938578125 0 0 0 -0.9375 -0.9375h-2.8125a0.9384374999999999 0.9384374999999999 0 0 0 -0.9375 0.9375v2.8125a0.9384374999999999 0.9384374999999999 0 0 0 0.9375 0.9375h0.9375v1.875H3.28125a0.9375 0.9375 0 0 0 -0.9375 0.9375v1.941609375a1.875 1.875 0 1 0 0.9375 0V8.4375h3.75v1.9415625a1.875 1.875 0 1 0 0.9375 0V8.4375h3.75v1.94128125a1.875 1.875 0 1 0 0.9375 0ZM6.09375 1.875h2.8125l0.00046875 2.8125H6.09375ZM3.75 12.1875a0.9375 0.9375 0 1 1 -0.9375 -0.9375 0.938578125 0.938578125 0 0 1 0.9375 0.9375Zm4.6875 0a0.9375 0.9375 0 1 1 -0.9375 -0.9375 0.9387656249999999 0.9387656249999999 0 0 1 0.9375 0.9375Zm3.75 0.9375a0.9375 0.9375 0 1 1 0.9375 -0.9375 0.938578125 0.938578125 0 0 1 -0.9375 0.9375Z" stroke-width="1"></path><path id="_Transparent_Rectangle_" d="M0 0h15v15H0Z" fill="none" stroke-width="1"></path></svg>