<svg version="1.1" id="Close-Outline--Streamline-Carbon.svg" xmlns="http://www.w3.org/2000/svg" xmlns:xlink="http://www.w3.org/1999/xlink" x="0" y="0" viewBox="-0.5 -0.5 16 16" xml:space="preserve" enable-background="new 0 0 32 32" height="16" width="16"><desc>Close Outline Streamline Icon: https://streamlinehq.com</desc><title>checkmark</title><path d="M7.5 0.9375C3.8437499999999996 0.9375 0.9375 3.8437499999999996 0.9375 7.5s2.90625 6.5625 6.5625 6.5625 6.5625 -2.90625 6.5625 -6.5625S11.15625 0.9375 7.5 0.9375zm0 12.1875C4.40625 13.125 1.875 10.59375 1.875 7.5S4.40625 1.875 7.5 1.875s5.625 2.53125 5.625 5.625 -2.53125 5.625 -5.625 5.625z" stroke-width="1"></path><path id="_Transparent_Rectangle_" d="M0 0h15v15H0Z" fill="none" stroke-width="1"></path><path d="M10.03125 10.78125 7.5 8.25 4.96875 10.78125 4.21875 10.03125l2.53125 -2.53125L4.21875 4.96875 4.96875 4.21875l2.53125 2.53125L10.03125 4.21875l0.75 0.75 -2.53125 2.53125 2.53125 2.53125z" stroke-width="1"></path></svg>