<svg id="Content-View--Streamline-Carbon.svg" xmlns="http://www.w3.org/2000/svg" viewBox="-0.5 -0.5 16 16" height="16" width="16"><desc>Content View Streamline Icon: https://streamlinehq.com</desc><defs></defs><path d="M6.5625 8.90625a0.9375 0.9375 0 1 0 1.875 0 0.9375 0.9375 0 1 0 -1.875 0" stroke-width="1"></path><path d="M11.145421875 8.661796875A4.050000000000001 4.050000000000001 0 0 0 7.5 6.09375a4.050000000000001 4.050000000000001 0 0 0 -3.6454218750000003 2.5680468750000003L3.75 8.90625l0.104578125 0.244453125A4.050000000000001 4.050000000000001 0 0 0 7.5 11.71875a4.050000000000001 4.050000000000001 0 0 0 3.6454218750000003 -2.5680468750000003L11.25 8.90625ZM7.5 10.78125a1.875 1.875 0 1 1 1.875 -1.875 1.877109375 1.877109375 0 0 1 -1.875 1.875Z" stroke-width="1"></path><path d="M12.65625 1.40625H2.34375a0.9375 0.9375 0 0 0 -0.9375 0.9375v10.3125a0.9375 0.9375 0 0 0 0.9375 0.9375h10.3125a0.9375 0.9375 0 0 0 0.9375 -0.9375V2.34375a0.9375 0.9375 0 0 0 -0.9375 -0.9375ZM2.34375 2.34375h10.3125v1.875H2.34375Zm0 10.3125V5.15625h10.3125v7.5Z" stroke-width="1"></path><path id="_Transparent_Rectangle_" d="M0 0h15v15H0Z" fill="none" stroke-width="1"></path></svg>