<svg id="Customer--Streamline-Carbon.svg" xmlns="http://www.w3.org/2000/svg" viewBox="-0.5 -0.5 16 16" height="16" width="16"><desc>Customer Streamline Icon: https://streamlinehq.com</desc><defs></defs><path d="M13.94784375 10.005328125C13.858828125 9.902765625 13.72959375 9.84375 13.59375 9.84375h-0.9375v-0.9375c0 -0.516796875 -0.4205625 -0.9375 -0.9375 -0.9375h-1.875c-0.5169375 0 -0.9375 0.42070312499999996 -0.9375 0.9375v0.9375h-0.9375c-0.13584375 0 -0.26503125 0.059062500000000004 -0.35409375 0.16157812500000002 -0.089015625 0.10275000000000001 -0.1291875 0.23896875 -0.10996875 0.373546875l0.46875 3.28125c0.032953125 0.23071875 0.2308125 0.40237500000000004 0.4640625 0.40237500000000004h4.6875c0.23324999999999999 0 0.43110937499999996 -0.17165625 0.4640625 -0.40237500000000004l0.46875 -3.28125c0.01921875 -0.13457812500000002 -0.020953125 -0.27075 -0.10996875 -0.373546875ZM9.84375 8.90625h1.875v0.9375h-1.875v-0.9375Zm2.8747499999999997 4.21875h-3.8744999999999994l-0.334734375 -2.34375h4.5439687499999994l-0.334734375 2.34375Z" stroke-width="1"></path><path d="M4.6875 9.375h0.9375v4.6875h-0.9375Z" stroke-width="1"></path><path d="m7.866 8.37890625 -0.894 -1.11740625 -0.675890625 -1.690078125C6.0811875 5.03446875 5.568703125 4.6875 4.990359375000001 4.6875h-2.6465625c-0.7754531250000001 0 -1.40625 0.6307968749999999 -1.40625 1.40625v3.28125c0 0.516796875 0.42046875 0.9375 0.9375 0.9375h0.46875v3.75h0.9375V9.375h-1.40625v-3.28125c0 -0.25865625 0.210328125 -0.46875 0.46875 -0.46875h2.6465625c0.192703125 0 0.363703125 0.11582812499999999 0.43509375 0.294796875l0.77109375 1.8731718750000002 0.9375 1.171875 0.7319531250000001 -0.5859375Z" stroke-width="1"></path><path d="M1.875 2.34375c0 -1.033875 0.841125 -1.875 1.875 -1.875s1.875 0.841125 1.875 1.875 -0.841125 1.875 -1.875 1.875 -1.875 -0.841125 -1.875 -1.875Zm0.9375 0c0 0.5169375 0.42046875 0.9375 0.9375 0.9375s0.9375 -0.4205625 0.9375 -0.9375 -0.42046875 -0.9375 -0.9375 -0.9375 -0.9375 0.4205625 -0.9375 0.9375Z" stroke-width="1"></path><path id="_Transparent_Rectangle_" d="M0 0h15v15H0Z" fill="none" stroke-width="1"></path></svg>