<svg id="Order-Details--Streamline-Carbon.svg" xmlns="http://www.w3.org/2000/svg" viewBox="-0.5 -0.5 16 16" height="16" width="16"><desc>Order Details Streamline Icon: https://streamlinehq.com</desc><defs></defs><path d="M8.90625 9.84375h-2.8125a1.40625 1.40625 0 0 0 -1.40625 1.40625v0.9375h0.9375v-0.9375a0.46875 0.46875 0 0 1 0.46875 -0.46875h2.8125a0.46875 0.46875 0 0 1 0.46875 0.46875v0.9375h0.9375v-0.9375a1.40625 1.40625 0 0 0 -1.40625 -1.40625Z" stroke-width="1"></path><path d="M7.5 9.375a1.875 1.875 0 1 0 -1.875 -1.875 1.875 1.875 0 0 0 1.875 1.875Zm0 -2.8125a0.9375 0.9375 0 1 1 -0.9375 0.9375 0.9375 0.9375 0 0 1 0.9375 -0.9375Z" stroke-width="1"></path><path d="M11.71875 2.34375h-1.40625V1.875a0.9375 0.9375 0 0 0 -0.9375 -0.9375h-3.75a0.9375 0.9375 0 0 0 -0.9375 0.9375v0.46875H3.28125a0.9375 0.9375 0 0 0 -0.9375 0.9375v9.84375a0.9375 0.9375 0 0 0 0.9375 0.9375h8.4375a0.9375 0.9375 0 0 0 0.9375 -0.9375V3.28125a0.9375 0.9375 0 0 0 -0.9375 -0.9375ZM5.625 1.875h3.75v1.875h-3.75Zm6.09375 11.25H3.28125V3.28125h1.40625v1.40625h5.625V3.28125h1.40625Z" stroke-width="1"></path><path id="_Transparent_Rectangle_" d="M0 0h15v15H0Z" fill="none" stroke-width="1"></path></svg>