<svg id="Product--Streamline-Carbon.svg" xmlns="http://www.w3.org/2000/svg" viewBox="-0.5 -0.5 16 16" height="16" width="16"><desc>Product Streamline Icon: https://streamlinehq.com</desc><defs></defs><title>product</title><path d="M3.75 8.4375h2.8125v0.9375H3.75Z" stroke-width="1"></path><path d="M3.75 10.3125h4.6875v0.9375H3.75Z" stroke-width="1"></path><path d="M12.1875 1.875H2.8125a0.9386718749999999 0.9386718749999999 0 0 0 -0.9375 0.9375v9.375a0.9386718749999999 0.9386718749999999 0 0 0 0.9375 0.9375h9.375a0.9386718749999999 0.9386718749999999 0 0 0 0.9375 -0.9375V2.8125a0.9386718749999999 0.9386718749999999 0 0 0 -0.9375 -0.9375Zm-3.75 0.9375v1.875h-1.875V2.8125ZM2.8125 12.1875V2.8125h2.8125v2.8125h3.75V2.8125h2.8125l0.0005625 9.375Z" stroke-width="1"></path><path id="_Transparent_Rectangle_" d="M0 0h15v15H0Z" fill="none" stroke-width="1"></path></svg>