<svg id="Save--Streamline-Carbon.svg" xmlns="http://www.w3.org/2000/svg" viewBox="-0.5 -0.5 16 16" height="16" width="16"><desc>Save Streamline Icon: https://streamlinehq.com</desc><defs></defs><title>save</title><path d="m12.989062500000001 4.3546875 -2.34375 -2.34375A0.46875 0.46875 0 0 0 10.3125 1.875H2.8125a0.9375 0.9375 0 0 0 -0.9375 0.9375v9.375a0.9375 0.9375 0 0 0 0.9375 0.9375h9.375a0.9375 0.9375 0 0 0 0.9375 -0.9375V4.6875a0.46875 0.46875 0 0 0 -0.1359375 -0.33281249999999996ZM5.625 2.8125h3.75v1.875h-3.75Zm3.75 9.375h-3.75v-3.75h3.75Zm0.9375 0v-3.75a0.9375 0.9375 0 0 0 -0.9375 -0.9375h-3.75a0.9375 0.9375 0 0 0 -0.9375 0.9375v3.75H2.8125V2.8125h1.875v1.875a0.9375 0.9375 0 0 0 0.9375 0.9375h3.75a0.9375 0.9375 0 0 0 0.9375 -0.9375V3.0046875l1.875 1.875V12.1875Z" stroke-width="1"></path><path id="_Transparent_Rectangle_" d="M0 0h15v15H0Z" fill="none" stroke-width="1"></path></svg>