<svg id="Shopping-Cart--Streamline-Carbon.svg" xmlns="http://www.w3.org/2000/svg" viewBox="-0.5 -0.5 16 16" height="16" width="16"><desc>Shopping Cart Streamline Icon: https://streamlinehq.com</desc><defs></defs><title>shopping--cart</title><path d="M3.75 13.125a0.9375 0.9375 0 1 0 1.875 0 0.9375 0.9375 0 1 0 -1.875 0" stroke-width="1"></path><path d="M10.3125 13.125a0.9375 0.9375 0 1 0 1.875 0 0.9375 0.9375 0 1 0 -1.875 0" stroke-width="1"></path><path d="M13.125 3.28125H2.7281250000000004L2.34375 1.3125A0.46875 0.46875 0 0 0 1.875 0.9375H0v0.9375h1.490625L3.28125 10.875a0.46875 0.46875 0 0 0 0.46875 0.375h8.4375v-0.9375H4.134375L3.75 8.4375h8.4375a0.46875 0.46875 0 0 0 0.46875 -0.36562500000000003l0.9375 -4.21875A0.46875 0.46875 0 0 0 13.125 3.28125Zm-1.3125 4.21875H3.571875l-0.65625 -3.28125h9.623437500000001Z" stroke-width="1"></path><path id="_Transparent_Rectangle_" d="M0 0h15v15H0Z" fill="none" stroke-width="1"></path></svg>