<svg id="User-Multiple--Streamline-Carbon.svg" xmlns="http://www.w3.org/2000/svg" viewBox="-0.5 -0.5 16 16" height="16" width="16"><desc>User Multiple Streamline Icon: https://streamlinehq.com</desc><defs></defs><title>user--multiple</title><path d="M14.0625 14.0625h-0.9375v-2.34375a2.346421875 2.346421875 0 0 0 -2.34375 -2.34375v-0.9375a3.2849062499999997 3.2849062499999997 0 0 1 3.28125 3.28125Z" stroke-width="1"></path><path d="M10.3125 14.0625h-0.9375v-2.34375a2.346515625 2.346515625 0 0 0 -2.34375 -2.34375H4.21875a2.346515625 2.346515625 0 0 0 -2.34375 2.34375v2.34375H0.9375v-2.34375a3.28509375 3.28509375 0 0 1 3.28125 -3.28125h2.8125a3.28509375 3.28509375 0 0 1 3.28125 3.28125Z" stroke-width="1"></path><path d="M9.375 0.9375v0.9375a2.34375 2.34375 0 0 1 0 4.6875v0.9375a3.28125 3.28125 0 0 0 0 -6.5625Z" stroke-width="1"></path><path d="M5.625 1.875a2.34375 2.34375 0 1 1 -2.34375 2.34375 2.34375 2.34375 0 0 1 2.34375 -2.34375m0 -0.9375a3.28125 3.28125 0 1 0 3.28125 3.28125 3.28125 3.28125 0 0 0 -3.28125 -3.28125Z" stroke-width="1"></path><path id="_Transparent_Rectangle_" d="M0 0h15v15H0Z" fill="none" stroke-width="1"></path></svg>